<svg width="24" height="26" viewBox="0 0 24 26">
  <path d="M8.73066 23.6541V19.9248C8.73066 18.9728 9.50805 18.201 10.467 18.201H13.9725C14.433 18.201 14.8747 18.3826 15.2003 18.7059C15.5259 19.0291 15.7089 19.4676 15.7089 19.9248V23.6541C15.706 24.0499 15.8623 24.4305 16.1432 24.7113C16.4241 24.9922 16.8063 25.1502 17.205 25.1502H19.5966C20.7135 25.1531 21.7858 24.7146 22.5766 23.9315C23.3674 23.1485 23.8119 22.0852 23.8119 20.9763V10.352C23.8119 9.45631 23.4119 8.60668 22.7198 8.03201L14.5841 1.58153C13.1688 0.450535 11.1411 0.487052 9.76811 1.66826L1.81797 8.03201C1.09316 8.58974 0.659957 9.44189 0.63855 10.352V20.9655C0.63855 23.2766 2.52581 25.1502 4.85387 25.1502H7.19086C8.01893 25.1502 8.69189 24.487 8.6979 23.6649L8.73066 23.6541Z" />
</svg>