<svg width="24" height="24" viewBox="0 0 24 24">
  <path fill-rule="evenodd" clip-rule="evenodd" d="M11.8019 3.84861C11.5269 4.06111 11.1394 4.03611 10.9019 3.79861L10.8394 3.73611C10.5519 3.44861 10.5769 2.99861 10.8769 2.73611C12.5394 1.32361 14.5644 0.611115 16.5894 0.611115C18.6144 0.611115 20.6394 1.32361 22.3019 2.73611C22.6019 2.99861 22.6144 3.46111 22.3394 3.73611L22.2894 3.79861C22.0394 4.03611 21.6519 4.06111 21.3894 3.84861C19.9644 2.72361 18.2769 2.11111 16.5894 2.11111C14.9019 2.11111 13.2144 2.72361 11.8019 3.84861ZM12.9769 5.74861C12.7019 5.47361 12.7144 4.99861 13.0269 4.74861C14.0644 3.93611 15.3269 3.48611 16.5894 3.48611C17.8519 3.48611 19.1144 3.93611 20.1519 4.73611C20.4644 4.98611 20.4894 5.44861 20.2019 5.73611L20.1519 5.78611C19.9144 6.03611 19.5269 6.04861 19.2519 5.83611C18.4644 5.24861 17.5269 4.98611 16.5894 4.98611C15.6519 4.98611 14.7144 5.24861 13.9269 5.84861C13.6519 6.04861 13.2769 6.04861 13.0269 5.79861L12.9769 5.74861ZM20.3394 13.1111H17.8394V9.36111C17.8394 8.67361 17.2769 8.11111 16.5894 8.11111C15.9019 8.11111 15.3394 8.67361 15.3394 9.36111V13.1111H2.83942C1.46442 13.1111 0.339417 14.2361 0.339417 15.6111V20.6111C0.339417 21.9861 1.46442 23.1111 2.83942 23.1111H20.3394C21.7144 23.1111 22.8394 21.9861 22.8394 20.6111V15.6111C22.8394 14.2361 21.7144 13.1111 20.3394 13.1111ZM4.08942 19.3611H6.58942V16.8611H4.08942V19.3611ZM10.9644 19.3611H8.46442V16.8611H10.9644V19.3611ZM12.8394 19.3611H15.3394V16.8611H12.8394V19.3611Z" />
</svg>