<svg version="1.2" xmlns="http://www.w3.org/2000/svg" viewBox="0 0 867 764" width="867" height="764"><style>.a{fill:#d4e7ff}.b{opacity:.4;fill:none;stroke:#4570b4;stroke-width:2}.c{opacity:.4;fill:#4570b4}.d{fill:#fff}.e{opacity:.4;fill:#fff}.f{opacity:.4;fill:none;stroke:#fff;stroke-width:2}.g{fill:#68a8de}.h{fill:#c6606c}.i{fill:#00496a}.j{fill:#d9d9d9}.k{fill:#a6d6f7}.l{fill:#8cc6e5}.m{fill:#ff6a76}.n{fill:#4570b4}.o{fill:#375c93}.p{fill:#ffa9b3}.q{fill:none;stroke:#fff;stroke-linecap:round;stroke-linejoin:round;stroke-width:2}.r{fill:none;stroke:#aa4451;stroke-width:2}</style><path class="a" d="m795.3 434.3c-8.8 191.1-178.9 245.5-390.7 249.6-323 6.3-360.6-96.3-360.6-287.7 0-191.4 70.4-389 257.1-374.4 88.7 6.9 189.4 153.9 264.8 202.7 104.1 67.4 236.1 66.2 229.4 209.8z"/><path class="b" d="m39.1 514.3c0 0 67.2-29.3 98.2-125 30.9-95.8 87-176.4 193.2-181.8 106.3-5.4 221.2 1.3 259.2-55.8 37.9-57-43.2-58.3-44.4 41.8-1.1 100 173.8 283.6 182.9 426.1 9.1 142.5-108.9 114.2-255.6 56.9-146.7-57.2-299.8 56.1-395.2 13.7-95.5-42.4-91.3-133.1-38.3-175.9z"/><path class="c" d="m91.9 364.8c0 21.3-17.3 38.6-38.6 38.6-21.3 0-38.5-17.3-38.5-38.6 0-21.3 17.2-38.6 38.5-38.6 21.3 0 38.6 17.3 38.6 38.6z"/><path class="b" d="m102.6 364.8c0 27.2-22.1 49.3-49.3 49.3-27.2 0-49.2-22.1-49.2-49.3 0-27.2 22-49.2 49.2-49.2 27.2 0 49.3 22 49.3 49.2z"/><path class="c" d="m831.1 389.3c0 24.8-20.2 45-45 45-24.9 0-45-20.2-45-45 0-24.9 20.1-45 45-45 24.8 0 45 20.1 45 45z"/><path class="b" d="m485.5 287.2h-25.8l12.1-19.3z"/><path class="c" d="m318.8 114.1h-34.5l16.2-25.8z"/><path class="c" d="m469 93.4c0 25.9-21 47-46.9 47-25.9 0-46.9-21.1-46.9-47 0-25.9 21-46.9 46.9-46.9 25.9 0 46.9 21 46.9 46.9z"/><path class="d" d="m426.1 97l2.7 5.1c1.7 3.2 5.7 4.5 8.9 2.8 2.2-1.2 4.9-0.3 6.1 1.9l3.9 7.6c1.2 2.2 0.3 4.9-1.9 6l-3.4 1.8c-3.2 1.7-6.9 2.4-10.6 1.9l-2.1-0.3c-3.8-0.5-7-2.7-8.8-6.1l-7.3-14.1-5-9.4-7.3-14.1c-1.8-3.4-1.8-7.4-0.1-10.7l1-1.9c1.7-3.3 4.4-5.9 7.6-7.6l3.4-1.8c2.2-1.2 5-0.3 6.1 1.9l4 7.5c1.1 2.2 0.3 5-1.9 6.1-3.3 1.7-4.5 5.7-2.8 9l2.6 5z"/><path class="b" d="m765.3 622.7c0 5.4-4.3 9.7-9.7 9.7-5.3 0-9.7-4.3-9.7-9.7 0-5.4 4.4-9.7 9.7-9.7 5.4 0 9.7 4.3 9.7 9.7z"/><path class="e" d="m202.5 90.9c0 9.9-8 18-17.9 18-9.9 0-18-8.1-18-18 0-9.9 8.1-17.9 18-17.9 9.9 0 17.9 8 17.9 17.9z"/><path class="b" d="m692.8 340.5c0 9.9-8 17.9-18 17.9-9.9 0-17.9-8-17.9-17.9 0-10 8-18 17.9-18 10 0 18 8 18 18z"/><path class="c" d="m126.9 443.2c0 9.7-7.8 17.5-17.5 17.5-9.6 0-17.5-7.8-17.5-17.5 0-9.6 7.9-17.5 17.5-17.5 9.7 0 17.5 7.9 17.5 17.5z"/><path class="f" d="m817.1 389.3c0 17.1-13.9 31-31 31-17.1 0-31-13.9-31-31 0-17.2 13.9-31.1 31-31.1 17.1 0 31 13.9 31 31.1z"/><path class="c" d="m776.4 111.9v129.9c0 9.2-7.5 16.7-16.7 16.7h-22.5l-44.8 37.6c-4.2 3.6-10.6 0.6-10.6-4.9v-32.7h-137.2c-9.2 0-16.6-7.5-16.6-16.7v-129.9c0-9.2 7.4-16.7 16.6-16.7h215.1c9.2 0 16.7 7.5 16.7 16.7z"/><path class="g" d="m814.2 111.4c0 19.5-5.6 37.6-15.2 52.8q-2.3 3.6-4.9 7.1c-17.6 23-45.1 37.9-76 37.9-15.8 0-30.8-3.9-44-10.8-30.9-16.3-52.1-49.1-52.1-87q0-6.6 0.9-13c6.3-47.8 46.5-84.7 95.2-84.7 53.1 0 96.1 43.7 96.1 97.7z"/><path class="h" d="m794.1 171.2c-17.6 23.1-45.1 38-76 38-15.8 0-30.8-3.9-44-10.9 1.8-4.5 7.3-16.4 17.1-23.1 12.2-8.3 49.3-13.4 75-11.2 15.2 1.3 23.6 4.7 27.9 7.2z"/><path class="d" d="m758.9 59.8l6.2 36.6c0 0-8.3 60.2-48 61.1-39.7 0.9-41.3-47.9-41.3-47.9l-1-47.8c37.7-32.9 84.1-2 84.1-2z"/><path class="d" d="m753.9 130.6c-0.5 18.1 1.5 38.7 1.5 38.7l-30.7 28.2c0 0-13.3-20.9-8.9-27 4.5-6 1.5-24.5 1.5-24.5z"/><path class="i" d="m675.5 91.2c0 0-15.8 1.1-18.1-12.4-2.4-13.5 8.5-16.3 8.5-16.3-5.5-3.4-8.8-16.7 2.6-22.9 11.4-6.2 24.9 4.1 24.9 4.1 16-9.3 30.2-9.7 51.6-4.1 21.5 5.6 20.6 21.6 20.6 21.6 0 0 10.9 6.5 8.8 28.1-2.2 21.6-20.5 41.3-20.5 41.3l-4.8-13c0 0 11.3-2.4 13.1-12.2 1.9-9.9-0.7-17.4-7.8-17.4-7 0-11.1 9.9-11.1 9.9 0 0-6.4-2.6-8.4-12.5-1.9-9.8 2.6-17.5 2.6-17.5 0 0-4.9 3.2-11.6 3.2-6.6 0-10.7-1.7-10.7-1.7 0 0-4.3 4.9-16.5 6-12.2 1-23.6-2.6-23.6-2.6z"/><path class="j" d="m717.1 157.5c0 0 28.8-7.6 31.7-26.9 0 0 7.1 27.9-31.7 37.4 0 0 1.1-8.3 0-10.5z"/><path class="c" d="m866.2 44.8c0 24.8-20.1 44.9-44.9 44.9-24.8 0-44.9-20.1-44.9-44.9 0-24.8 20.1-44.9 44.9-44.9 24.8 0 44.9 20.1 44.9 44.9z"/><path class="d" d="m816.2 56.9l-0.2-2.1c-0.4-4.3 1-9.1 5-13.9 3.6-4.2 5.7-7.4 5.7-11 0-4.1-2.6-6.8-7.7-6.9-2.9 0-6.1 0.9-8.1 2.5l-1.9-5.1c2.6-1.9 7.2-3.2 11.5-3.2 9.2 0 13.4 5.7 13.4 11.8 0 5.5-3.1 9.4-6.9 14-3.6 4.2-4.8 7.7-4.6 11.8l0.1 2.1zm-1.8 11.3c0-3 2-5.1 4.8-5.1 2.8 0 4.8 2.1 4.8 5.1 0 2.8-1.9 4.9-4.8 4.9-2.9 0-4.8-2.1-4.8-4.9z"/><path class="k" d="m744.9 573q-0.2 0.7-0.5 1.1-5.7 8.3-12.1 16.1c-137.3 168.6-490.3 168.6-490.3 168.6v-201.3h502.4c0 0 1.9 11 0.5 15.5z"/><path class="l" d="m744.9 573q-0.2 0.7-0.5 1.1-5.7 8.3-12.1 16.1l-490.3 55.7v-72.9z"/><path class="m" d="m472.6 415.1l-24.3 25.7c0 0-5-5.1-10.9-12.9-2.9-3.8-5.9-8.2-8.8-12.9-3.7-6.2-7-13-8.9-19.8-6.4-22.9-3.8-71.2-3.8-71.2 0 0 10.4 1.1 13.9 5 20 22.2 42.8 86.1 42.8 86.1z"/><path class="n" d="m381.2 499.2h-174l-15.8-133.8c-1.9-15.3 8.8-29.2 23.8-31.2l10.5-1.3 133-17.3z"/><path class="m" d="m375.7 318.7l40.2 5.3c0 0 16.6 51.4 15.8 73.8-0.8 22.3-13.1 35.9-13.1 35.9l-5.8 65.5h-115.3l5.1-68.6c0 0-26.6-83-23.5-87.7 3-4.7 59.7-22.9 59.7-22.9z"/><path class="i" d="m392 216.9c21.8 23 11.6 85.5 11.6 85.5 0 0-4 0-23.8 1.9-19.8 1.9-91.3 11.3-91.3 11.3 0 0-29-62.3-1-101.9 28-39.6 67.5-22.6 67.5-22.6 0 0 15.2 2.8 37 25.8z"/><path class="d" d="m369.7 345.5l-33.4-22.8c0 0 2.8-8.7 2.1-17.5-0.2-1.9-0.5-3.9-1-5.7q-0.5-1.4-1.1-2.7l33.4-1.7c0 0 0.2 2.7 0.8 6.2 0.5 2.7 1.2 5.9 2.4 8.7 0.8 2.1 1.8 3.9 3 5.2 5.1 5.1-6.2 30.3-6.2 30.3z"/><path class="j" d="m372.9 310c-4.3 0.2-22.7 0.4-34.5-4.8-0.2-1.9-0.5-3.9-1-5.7 0 0 22.4 2.7 33.1 1.8 0.5 2.7 1.2 5.9 2.4 8.7z"/><path class="d" d="m388.4 206.1l5.6 45.9c0 0 7.2 47.4-30.9 52-38.2 4.5-51.1-39.6-51.1-39.6l-4.5-48.7c0 0 40.3-36.1 80.9-9.6z"/><path class="i" d="m371 209.7c0 0-5 12.3-21.4 21-14.6 7.7-28.3 9.8-28.3 9.8 0 0-2.2 13-9.5 21.1 0 0-12.8-24.2-7.6-45.1 5.2-20.8 32.1-30.9 55.7-28.7 23.6 2.1 32.1 10.7 35.3 24.5 3.1 13.8-2.1 32.4-2.1 32.4 0 0-5-30.7-22.1-35z"/><path class="g" d="m302.1 251.5c-2.7-21.3-1.4-48.6 26.1-60.7 27.4-12.1 41.3-1.7 41.3-1.7 0 0-22.1-3.2-39.6 8.9-26.9 18.5-22.4 53.5-22.4 53.5z"/><path class="o" d="m246.9 499.2h-39.7l-15.8-133.8c-1.9-15.3 8.8-29.2 23.8-31.2l10.5-1.3z"/><path class="o" d="m344.8 295.5c-18.3 0-31.8-12.6-32.4-13.2l2.5-2.7c0.1 0.2 14.9 14 33.4 12.1l0.3 3.7q-1.9 0.1-3.8 0.1z"/><path class="g" d="m796.2 574.1h-546c-14.6 0-28.5-6-38.2-16.5l-30-32.5c-11.6-12.7-2.4-32.6 15.1-32.6h533c18.4 0 36.1 6.9 49.3 19.3l30.8 28.7c13.1 12.2 4.2 33.6-14 33.6z"/><path class="d" d="m553.6 331.1c0.4 1-5.1 4.8-9.4 7.6l-15.7 14.7c-4 9.7-20.6 50.2-31.8 65.4-5.9 8.1-12 16-19.6 22-9.8 7.6-26.6 5.4-33.8-4.6-2.5-3.4-4.1-6-4.1-6l69.6-88.4c0-2.2 0.2-7.1 2.1-12.6 2.6-7.4 8.8-14.6 11.1-14.6 2.2 0-2.6 10.3-4.3 13.1l7.9-2.9c0 0 10.9-6.8 14.7-8.8 2.8-1.5 6.5-2.5 7.3-0.7 0.5 1.2-6 5.6-10.9 8.7l0.3 0.4c3-1.8 6.4-3.8 8.1-4.8 2.8-1.5 6.6-2.4 7.3-0.6 0.5 1.3-7.7 6.7-12.7 9.8l0.2 0.4c2.8-1.7 5.8-3.5 7.4-4.3 2.8-1.5 6.5-2.5 7.3-0.7 0.5 1.2-6.9 6.2-11.9 9.4l0.3 0.5c1.7-1 3.2-1.9 4.2-2.4 2.5-1.4 5.8-2.2 6.4-0.6z"/><path class="i" d="m364.1 514c0 0 8.1 6 11.3 14.1 3.2 8.2-17.3 13.4-51.7 1.7-25-8.4 17.2-34.5 40.4-15.8z"/><path class="i" d="m351.1 297.7h-4.6c-1.6 0-2.9-1.3-2.9-3v-2.8c0-1.7 1.3-3 2.9-3h4.6c1.7 0 3 1.3 3 3v1.4 1.4c0 1.7-1.3 3-3 3z"/><path class="n" d="m327.2 261.8c2.5 12.7-4.1 24.9-14.8 27.1-10.7 2.2-21.5-6.3-24-19-2.6-12.8 4.1-24.9 14.8-27.1 10.7-2.2 21.4 6.3 24 19z"/><path class="g" d="m316.4 264.1c1.5 7.5-2.4 14.6-8.7 15.9-6.4 1.3-12.7-3.7-14.2-11.2-1.5-7.5 2.4-14.7 8.7-16 6.4-1.3 12.7 3.8 14.2 11.3z"/><path class="m" d="m302.2 397.5c-3.8 23-45.6 71.4-45.6 71.4l-31.7-14c0 0 32.9-82.4 49.8-109.3 4-6.3 13.7-7.7 13.7-7.7 0 0 17.7 36.6 13.8 59.6z"/><path class="d" d="m253.6 461.9l65.2 42.4-9.2 20.4c0 0-58.7-21-76.7-34.7-18-13.7-8-35.1-8-35.1 0 0 9.9-1.2 28.7 7z"/><path class="d" d="m316.9 503.7c0 0 22-1.1 29.9-1.1 7.9 0 21.7 13 20.2 17.2-1.5 4.1-17.4-8.6-17.4-8.6l-0.9 1.7c0 0 14.1 8.6 14.9 11.8 0.7 3.3-2.5 2.8-7.1 0.8-4.6-1.9-11.5-6.4-11.5-6.4l-0.7 0.9c0 0 13.2 8.2 13.2 11.2 0 3-9.5-0.4-16.6-5l-0.9 1.4c0 0 8.7 4.4 9.4 7.3 0.6 2.8-4.1 1.7-9.4-0.8-5.2-2.5-10.1-2.7-16.8-3.8-6.8-1-14.8-6-14.8-6z"/><path class="n" d="m721.1 384.7l-31.3 156.8h-231.6l31.1-155.9c0.6-3.3 3.5-5.6 6.8-5.6h221.1c2.5 0 4.3 2.3 3.9 4.7z"/><path class="i" d="m458.2 541.5l-63.6-20.7c-2.3-0.7-3.8-2.8-3.8-5.2 0-3 2.4-5.4 5.4-5.4h68.2z"/><path class="h" d="m291.2 344.2c0 0 14.3 40.3 5.6 68 0 0 29.1-32.4-5.6-68z"/><path class="h" d="m437.4 427.9c-2.9-3.8-5.9-8.2-8.8-12.9 5.9-23.1-7.8-74.5-7.8-74.5 30 38.2 21.7 73.7 16.6 87.4z"/><path class="o" d="m503.2 389.3l186.6 152.2h-212.7z"/><path class="k" d="m626.9 469c0 10.3-8.4 18.7-18.6 18.7-10.3 0-18.6-8.4-18.6-18.7 0-10.2 8.3-18.6 18.6-18.6 10.2 0 18.6 8.4 18.6 18.6z"/><path class="p" d="m338.2 313.5l31.5 32c0 0-5.5 7.8-14.6 7.5-9.1-0.2-14.2-11.7-16.8-17.7-2.5-6-7.8-12.6-7.8-12.6z"/><path class="p" d="m373.9 312.3l9 5.2c0 0 3 9.8 5.8 15.4 2.8 5.5 4.9 10.7-3 14.1-7.9 3.5-16-1.5-16-1.5 5.8-12.2 4.2-33.2 4.2-33.2z"/><path class="h" d="m384 424c-27.3 3.8-45.1-8.9-45.1-8.9l79.3-7.7c0 0-6.8 12.7-34.2 16.6z"/><path class="c" d="m257.4 166v43.7 10.9 22.7l-39.1-22.7h-120.9c-9.1 0-16.5-7.4-16.5-16.5v-38.1c0-9.1 7.4-16.5 16.5-16.5h143.5c9.1 0 16.5 7.4 16.5 16.5z"/><path class="q" d="m91.9 166.7h149.4"/><path class="q" d="m91.9 184.9h149.4"/><path class="q" d="m91.9 203.2h149.4"/><path class="h" d="m168.1 693.1c-41.1 3.2-88.6-111.7-77.6-128.9 10.9-17.2 49.2 35.1 51 17.9 1.7-17.1-51.4-73.9-37.5-90.6 13.9-16.8 23.1 18.7 38.4 24.6 15.3 6 3.4-23.9 6-50.7 2.7-26.7 34.2-42.5 36-10.8 1.7 31.7-20.3 65.2 3 52.4 23.2-12.8 36.7-19.6 39.2-4.2 2.6 15.4-11 24.8-29.6 55.4-18.6 30.6-2.1 39.8 14.6 23.4 16.8-16.4 41.3-21.1 37.5 10-3.8 31-28.7 97.4-81 101.5z"/><path class="r" d="m169.1 710.8c0 0-6-114.6-8.6-160.2-2.7-45.5 3.9-81.4 3.9-81.4"/><path class="r" d="m207.3 514.3c-7.4 6.2-46.4 43.8-46.4 43.8-11-7.9-41.2-43.8-41.2-43.8"/><path class="r" d="m231.9 590l-66.8 44.8c-17.8-3.1-63.2-48.7-63.2-48.7"/><path class="m" d="m119 698.8c-25.9 4.3-83-25.1-82.6-41.8 0.3-16.8 49.4 3.6 43.4-9.2-6.1-12.8-67.6-30-65-47.7 2.6-17.6 24.3 3.3 37.5 1 13.3-2.4-7.8-18.3-17.4-38.2-9.5-19.8 5.8-44.4 20.6-22.9 14.8 21.5 13.6 54.4 24.5 35.5 10.8-18.9 17.4-29.4 25.7-19.7 8.4 9.7 2.9 22.1 2.9 51.5 0 29.4 15.4 28.8 20.2 10.2 4.8-18.6 20-32.4 30.6-9 10.6 23.4-9.1 66.9-9.1 66.9 0 0-5.4 19-31.3 23.4z"/><path class="r" d="m46.6 553.1c0 0 74.9 120.3 90.7 157.7"/><path class="r" d="m97.8 574.3l-10.8 45.3-52.7-9.4"/><path class="r" d="m141.6 622.9l-23.1 51.1-56.3-9.7"/><path class="o" d="m116.8 710.8h95.2l-8.2 48h-77z"/><path class="n" d="m213.2 724.1h-96.7c-3.5 0-6.4-2.9-6.4-6.4v-5.1c0-3.6 2.9-6.5 6.4-6.5h96.7c3.5 0 6.4 2.9 6.4 6.5v5.1c0 3.5-2.9 6.4-6.4 6.4z"/><path class="c" d="m623.3 698c0 36.5-29.6 66.1-66.1 66.1-36.5 0-66-29.6-66-66.1 0-36.5 29.5-66.1 66-66.1 36.5 0 66.1 29.6 66.1 66.1z"/><path fill-rule="evenodd" class="d" d="m602.9 677.7v45.8c0 2.3-1.9 4.1-4.1 4.1h-83.1c-2.3 0-4.1-1.8-4.1-4.1v-45.8c0-2.2 1.8-4.1 4.1-4.1h83.1c2.2 0 4.1 1.9 4.1 4.1zm-2.3-0.3c-0.6-0.9-1.9-1.1-2.8-0.5l-38 24.8-44.3-24.9c-1-0.5-2.2-0.2-2.8 0.8-0.5 0.9-0.2 2.1 0.8 2.7l45.4 25.5q0.5 0.2 1 0.2 0.6 0 1.1-0.3l39-25.5c0.9-0.6 1.2-1.8 0.6-2.8z"/><path class="p" d="m632.8 666.4c0 13.5-11 24.5-24.5 24.5-13.6 0-24.5-11-24.5-24.5 0-13.5 10.9-24.5 24.5-24.5 13.5 0 24.5 11 24.5 24.5z"/></svg>